<?xml version="1.0" encoding="UTF-8"?>
<svg width="64px" height="64px" viewBox="0 0 64 64" version="1.1" xmlns="http://www.w3.org/2000/svg" xmlns:xlink="http://www.w3.org/1999/xlink">
    <title>Icon</title>
    <defs>
        <filter color-interpolation-filters="auto" id="filter-1">
            <feColorMatrix in="SourceGraphic" type="matrix" values="0 0 0 0 0.000000 0 0 0 0 0.627451 0 0 0 0 1.000000 0 0 0 1.000000 0"></feColorMatrix>
        </filter>
    </defs>
    <g id="Icon" stroke="none" stroke-width="1" fill="none" fill-rule="evenodd">
        <g filter="url(#filter-1)" id="Group">
            <g>
                <path d="M56.0259136,64 L56.0259136,64 C51.6185148,64 48.0520013,60.837284 48.0520013,56.9288871 L48.0520013,7.0711129 C48.0520013,3.16271595 51.6185148,0 56.0259136,0 L56.0259136,0 C60.4333124,0 63.9998258,3.16271595 63.9998258,7.0711129 L63.9998258,56.9288871 C64.0288219,60.837284 60.4333124,64 56.0259136,64 Z" id="Path" fill="#FFFFFF" fill-rule="nonzero"></path>
                <path d="M31.9998251,64 L31.9998251,64 C27.5924264,64 24.0259129,60.837284 24.0259129,56.9288871 L24.0259129,22.9875452 C24.0259129,19.0791483 27.5924264,15.9164323 31.9998251,15.9164323 L31.9998251,15.9164323 C36.4072239,15.9164323 39.9737374,19.0791483 39.9737374,22.9875452 L39.9737374,56.9288871 C40.0027334,60.837284 36.43622,64 31.9998251,64 Z" id="Path" fill="#FFFFFF" fill-rule="nonzero"></path>
                <path d="M7.97391225,64 L7.97391225,64 C3.56651348,64 0,60.837284 0,56.9288871 L0,38.8782644 C0,34.9698674 3.56651348,31.8071515 7.97391225,31.8071515 L7.97391225,31.8071515 C12.381311,31.8071515 15.9478245,34.9698674 15.9478245,38.8782644 L15.9478245,56.9288871 C15.9478245,60.837284 12.381311,64 7.97391225,64 Z" id="Path" fill="#FFFFFF" fill-rule="nonzero"></path>
            </g>
        </g>
    </g>
</svg>