<?xml version="1.0" encoding="UTF-8"?>
<svg width="392px" height="64px" viewBox="0 0 392 64" version="1.1" xmlns="http://www.w3.org/2000/svg" xmlns:xlink="http://www.w3.org/1999/xlink">
    <title>Logo</title>
    <defs>
        <filter color-interpolation-filters="auto" id="filter-1">
            <feColorMatrix in="SourceGraphic" type="matrix" values="0 0 0 0 0.000000 0 0 0 0 0.627451 0 0 0 0 1.000000 0 0 0 1.000000 0"></feColorMatrix>
        </filter>
    </defs>
    <g id="Logo" stroke="none" stroke-width="1" fill="none" fill-rule="evenodd">
        <g id="Group">
            <path d="M103.809152,62.6291834 L103.809152,10.7095047 L123.257613,10.7095047 L123.257613,1.45649264 L73.7368633,1.45649264 L73.7368633,10.7095047 L93.0996478,10.7095047 L93.0996478,62.6291834 L103.809152,62.6291834 Z M137.957173,63.8286479 C140.41322,63.8286479 142.826428,63.157519 145.196798,61.815261 C147.567169,60.4730031 149.352086,58.6880857 150.551551,56.4605087 L150.551551,56.4605087 L150.722903,56.4605087 L150.722903,62.6291834 L160.318619,62.6291834 L160.318619,18.334672 L150.551551,18.334672 L150.551551,44.0374833 C150.551551,45.751004 150.365919,47.35029 149.994656,48.8353414 C149.623394,50.3203927 149.009382,51.5912539 148.152622,52.647925 C147.295861,53.7045962 146.182073,54.5470772 144.811256,55.1753681 C143.44044,55.8036591 141.726919,56.1178046 139.670694,56.1178046 C136.986178,56.1178046 134.901394,55.3181615 133.416343,53.7188755 C131.931292,52.1195895 131.188766,49.3779563 131.188766,45.4939759 L131.188766,45.4939759 L131.188766,18.334672 L121.421698,18.334672 L121.421698,46.4364123 C121.421698,52.2623829 122.721118,56.6175814 125.319958,59.502008 C127.918797,62.3864346 132.131203,63.8286479 137.957173,63.8286479 Z M180.672798,62.6291834 L180.672798,36.497992 C180.672798,34.8987059 180.929826,33.3850959 181.443882,31.957162 C181.957938,30.529228 182.671905,29.2869255 183.585783,28.2302544 C184.499661,27.1735832 185.613449,26.3453815 186.927148,25.7456493 C188.240848,25.145917 189.725899,24.8460509 191.382302,24.8460509 C194.295288,24.8460509 196.437188,25.6314145 197.808005,27.2021419 C199.178822,28.7728693 199.921347,31.3003124 200.035582,34.7844712 L200.035582,34.7844712 L200.035582,62.6291834 L209.80265,62.6291834 L209.80265,32.2141901 C209.80265,27.1878626 208.403275,23.4181169 205.604524,20.9049531 C202.805774,18.3917894 198.978911,17.1352075 194.123935,17.1352075 C191.21095,17.1352075 188.554993,17.8348951 186.156064,19.2342704 C183.757135,20.6336457 181.815145,22.5613565 180.330093,25.0174029 L180.330093,25.0174029 L180.158741,24.8460509 L180.158741,18.334672 L170.905729,18.334672 L170.905729,62.6291834 L180.672798,62.6291834 Z M239.923897,63.8286479 C242.322826,63.8286479 244.6218,63.5002231 246.820818,62.8433735 C249.019837,62.1865239 251.004665,61.2155288 252.775303,59.9303882 C254.545941,58.6452477 256.059551,57.060241 257.316133,55.1753681 C258.572715,53.2904953 259.458034,51.1485944 259.97209,48.7496653 L259.97209,48.7496653 L250.719078,48.7496653 C249.862318,51.2057117 248.562898,53.0477465 246.820818,54.2757697 C245.078739,55.5037929 242.779765,56.1178046 239.923897,56.1178046 C237.867672,56.1178046 236.097034,55.7608211 234.611983,55.0468541 C233.126932,54.3328871 231.898908,53.3761714 230.927913,52.1767068 C229.956918,50.9772423 229.228672,49.577867 228.743174,47.978581 C228.257677,46.379295 228.014928,44.7228916 228.014928,43.0093708 L228.014928,43.0093708 L260.571822,43.0093708 C260.971644,39.696564 260.757454,36.4837126 259.929252,33.3708166 C259.10105,30.2579206 257.773072,27.502008 255.945316,25.103079 C254.117561,22.7041499 251.818587,20.7764391 249.048395,19.3199465 C246.278203,17.8634538 243.151028,17.1352075 239.666869,17.1352075 C236.354062,17.1352075 233.38396,17.7634984 230.756561,19.0200803 C228.129163,20.2766622 225.887306,21.9759036 224.030992,24.1178046 C222.174678,26.2597055 220.746744,28.7443106 219.74719,31.5716198 C218.747637,34.398929 218.24786,37.383311 218.24786,40.5247657 C218.24786,43.9518072 218.719078,47.0932619 219.661514,49.9491299 C220.603951,52.8049978 222.003326,55.2610442 223.85964,57.3172691 C225.715954,59.373494 227.986369,60.97278 230.670885,62.1151272 C233.355401,63.2574743 236.439738,63.8286479 239.923897,63.8286479 Z M250.804754,36.583668 L228.014928,36.583668 C228.072045,34.9272646 228.40047,33.3850959 229.000202,31.957162 C229.599935,30.529228 230.399578,29.2869255 231.399131,28.2302544 C232.398685,27.1735832 233.59815,26.3453815 234.997525,25.7456493 C236.3969,25.145917 237.953348,24.8460509 239.666869,24.8460509 C241.323272,24.8460509 242.822603,25.1744757 244.164861,25.8313253 C245.507119,26.4881749 246.649466,27.3449353 247.591903,28.4016064 C248.534339,29.4582776 249.276865,30.7005801 249.81948,32.1285141 C250.362094,33.556448 250.690519,35.0414993 250.804754,36.583668 L250.804754,36.583668 Z M296.51904,64 C299.489142,64 302.430686,63.3859884 305.343672,62.1579652 C308.256657,60.929942 310.912614,58.7737617 313.311543,55.6894244 L314.68236,62.6291834 L323.249963,62.6291834 L323.249963,29.5582329 L297.547152,29.5582329 L297.547152,39.5823293 L311.083966,39.5823293 C310.684145,43.8661312 309.27049,47.1361 306.843002,49.3922356 C304.415514,51.6483713 300.974194,52.7764391 296.51904,52.7764391 C293.49182,52.7764391 290.921539,52.1909862 288.808196,51.0200803 C286.694854,49.8491745 284.981333,48.2927265 283.667634,46.3507363 C282.353935,44.4087461 281.397219,42.2240071 280.797487,39.7965194 C280.197755,37.3690317 279.897888,34.8701473 279.897888,32.2998661 C279.897888,29.6153503 280.197755,27.0165105 280.797487,24.5033467 C281.397219,21.990183 282.353935,19.7483266 283.667634,17.7777778 C284.981333,15.8072289 286.694854,14.2365016 288.808196,13.0655957 C290.921539,11.8946899 293.49182,11.3092369 296.51904,11.3092369 C299.774729,11.3092369 302.544921,12.1659973 304.829615,13.8795181 C307.11431,15.5930388 308.656478,18.1633199 309.456121,21.5903614 L322.307527,21.5903614 C321.964823,18.1062026 321.022386,15.0218652 319.480218,12.3373494 C317.938049,9.65283356 315.98178,7.3966979 313.611409,5.56894244 C311.241039,3.74118697 308.585082,2.35609103 305.643538,1.41365462 C302.701994,0.471218206 299.660494,0 296.51904,0 C291.835416,0 287.623011,0.828201696 283.881824,2.48460509 C280.140637,4.14100848 276.984903,6.42570281 274.414622,9.33868809 C271.844341,12.2516734 269.873792,15.6644355 268.502975,19.5769746 C267.132159,23.4895136 266.446751,27.7304775 266.446751,32.2998661 C266.446751,36.7550201 267.132159,40.9103079 268.502975,44.7657296 C269.873792,48.6211513 271.844341,51.9767961 274.414622,54.832664 C276.984903,57.6885319 280.140637,59.9303882 283.881824,61.5582329 C287.623011,63.1860776 291.835416,64 296.51904,64 Z M361.853138,64 C366.593879,64 370.820563,63.1860776 374.533192,61.5582329 C378.24582,59.9303882 381.387275,57.6885319 383.957556,54.832664 C386.527837,51.9767961 388.498386,48.6211513 389.869202,44.7657296 C391.240019,40.9103079 391.925427,36.7550201 391.925427,32.2998661 C391.925427,27.7304775 391.240019,23.4895136 389.869202,19.5769746 C388.498386,15.6644355 386.527837,12.2516734 383.957556,9.33868809 C381.387275,6.42570281 378.24582,4.14100848 374.533192,2.48460509 C370.820563,0.828201696 366.593879,0 361.853138,0 C357.169515,0 352.957109,0.828201696 349.215922,2.48460509 C345.474735,4.14100848 342.319001,6.42570281 339.74872,9.33868809 C337.178439,12.2516734 335.20789,15.6644355 333.837074,19.5769746 C332.466257,23.4895136 331.780849,27.7304775 331.780849,32.2998661 C331.780849,36.7550201 332.466257,40.9103079 333.837074,44.7657296 C335.20789,48.6211513 337.178439,51.9767961 339.74872,54.832664 C342.319001,57.6885319 345.474735,59.9303882 349.215922,61.5582329 C352.957109,63.1860776 357.169515,64 361.853138,64 Z M361.853138,52.7764391 C358.825918,52.7764391 356.255637,52.1909862 354.142295,51.0200803 C352.028952,49.8491745 350.315432,48.2927265 349.001732,46.3507363 C347.688033,44.4087461 346.731317,42.2240071 346.131585,39.7965194 C345.531853,37.3690317 345.231987,34.8701473 345.231987,32.2998661 C345.231987,29.6153503 345.531853,27.0165105 346.131585,24.5033467 C346.731317,21.990183 347.688033,19.7483266 349.001732,17.7777778 C350.315432,15.8072289 352.028952,14.2365016 354.142295,13.0655957 C356.255637,11.8946899 358.825918,11.3092369 361.853138,11.3092369 C364.880358,11.3092369 367.450639,11.8946899 369.563981,13.0655957 C371.677324,14.2365016 373.390844,15.8072289 374.704544,17.7777778 C376.018243,19.7483266 376.974959,21.990183 377.574691,24.5033467 C378.174423,27.0165105 378.474289,29.6153503 378.474289,32.2998661 C378.474289,34.8701473 378.174423,37.3690317 377.574691,39.7965194 C376.974959,42.2240071 376.018243,44.4087461 374.704544,46.3507363 C373.390844,48.2927265 371.677324,49.8491745 369.563981,51.0200803 C367.450639,52.1909862 364.880358,52.7764391 361.853138,52.7764391 Z" id="TuneGO" fill="#00A0FF" fill-rule="nonzero"></path>
            <g filter="url(#filter-1)">
                <g>
                    <path d="M56.0259136,64 L56.0259136,64 C51.6185148,64 48.0520013,60.837284 48.0520013,56.9288871 L48.0520013,7.0711129 C48.0520013,3.16271595 51.6185148,0 56.0259136,0 L56.0259136,0 C60.4333124,0 63.9998258,3.16271595 63.9998258,7.0711129 L63.9998258,56.9288871 C64.0288219,60.837284 60.4333124,64 56.0259136,64 Z" id="Path" fill="#FFFFFF" fill-rule="nonzero"></path>
                    <path d="M31.9998251,64 L31.9998251,64 C27.5924264,64 24.0259129,60.837284 24.0259129,56.9288871 L24.0259129,22.9875452 C24.0259129,19.0791483 27.5924264,15.9164323 31.9998251,15.9164323 L31.9998251,15.9164323 C36.4072239,15.9164323 39.9737374,19.0791483 39.9737374,22.9875452 L39.9737374,56.9288871 C40.0027334,60.837284 36.43622,64 31.9998251,64 Z" id="Path" fill="#FFFFFF" fill-rule="nonzero"></path>
                    <path d="M7.97391225,64 L7.97391225,64 C3.56651348,64 0,60.837284 0,56.9288871 L0,38.8782644 C0,34.9698674 3.56651348,31.8071515 7.97391225,31.8071515 L7.97391225,31.8071515 C12.381311,31.8071515 15.9478245,34.9698674 15.9478245,38.8782644 L15.9478245,56.9288871 C15.9478245,60.837284 12.381311,64 7.97391225,64 Z" id="Path" fill="#FFFFFF" fill-rule="nonzero"></path>
                </g>
            </g>
        </g>
    </g>
</svg>